<svg width="94" height="93" viewBox="0 0 94 93" fill="none" xmlns="http://www.w3.org/2000/svg">
<path d="M56.3027 84.5716L31.334 77.5966V42.6247H37.6007C38.0576 42.6247 38.5145 42.6738 38.9715 42.772C39.4284 42.8701 39.8854 42.9825 40.3423 43.1091L67.4652 53.0872C68.3791 53.4101 69.1142 53.9914 69.6703 54.831C70.2265 55.6706 70.5033 56.5424 70.5007 57.4466C70.5007 58.8029 70.0267 59.9008 69.0789 60.7404C68.1311 61.5799 67.0383 61.9997 65.8006 61.9997H55.5194C55.193 61.9997 54.9489 61.9842 54.787 61.9532C54.6251 61.9222 54.4123 61.8409 54.1486 61.7091L49.7423 60.0622C49.2201 59.8685 48.6979 59.9008 48.1757 60.1591C47.6534 60.4174 47.327 60.7726 47.1965 61.2247C47.0659 61.7414 47.0986 62.2258 47.2944 62.6779C47.4902 63.1299 47.8493 63.4529 48.3715 63.6466L54.1486 65.681C54.2791 65.7456 54.475 65.7947 54.7361 65.8282C54.9972 65.8618 55.2257 65.8773 55.4215 65.8747H82.2507C84.3395 65.8747 86.1673 66.6174 87.734 68.1029C89.3007 69.5883 90.084 71.4289 90.084 73.6247L61.1986 84.3779C60.5458 84.6362 59.7468 84.7822 58.8016 84.8157C57.8563 84.8493 57.0234 84.7679 56.3027 84.5716ZM7.83398 77.4997V50.3747C7.83398 48.2435 8.60165 46.4196 10.137 44.9032C11.6723 43.3868 13.5158 42.6273 15.6673 42.6247C17.8189 42.6221 19.6636 43.3816 21.2016 44.9032C22.7395 46.4248 23.5059 48.2486 23.5007 50.3747V77.4997C23.5007 79.631 22.7343 81.4561 21.2016 82.9751C19.6688 84.4941 17.8241 85.2523 15.6673 85.2497C13.5105 85.2471 11.6671 84.4889 10.137 82.9751C8.60687 81.4613 7.83921 79.6361 7.83398 77.4997ZM54.5402 31.8716L74.0257 12.6904C74.7437 11.9799 75.6419 11.6079 76.7203 11.5744C77.7987 11.5408 78.7283 11.9128 79.509 12.6904C80.227 13.4008 80.5861 14.3049 80.5861 15.4029C80.5861 16.5008 80.227 17.4049 79.509 18.1154L57.2819 40.106C56.4986 40.881 55.5847 41.2685 54.5402 41.2685C53.4958 41.2685 52.5819 40.881 51.7986 40.106L40.6361 29.0622C39.8527 28.2872 39.4767 27.3831 39.5081 26.3497C39.5394 25.3164 39.948 24.4122 40.734 23.6372C41.5173 22.9268 42.4312 22.5548 43.4757 22.5212C44.5201 22.4876 45.434 22.8596 46.2173 23.6372L54.5402 31.8716Z" fill="#A3A3C6"/>
</svg>
