<svg width="53" height="53" viewBox="0 0 53 53" fill="none" xmlns="http://www.w3.org/2000/svg">
<path d="M26.5 0C11.86 0 0 11.8617 0 26.5C0 41.1383 11.8617 53 26.5 53C41.14 53 53 41.1383 53 26.5C53 11.8617 41.1383 0 26.5 0ZM39.5158 18.1551L35.1664 38.6507C34.8449 40.1039 33.9798 40.4561 32.7728 39.7722L26.1478 34.8894L22.9524 37.9668C22.6002 38.319 22.301 38.6182 21.6172 38.6182L22.0873 31.8752L34.3645 20.7828C34.8996 20.3127 34.2465 20.046 33.5405 20.5161L18.3671 30.0681L11.8275 28.0267C10.4068 27.5788 10.3743 26.606 12.1267 25.9221L37.6762 16.0693C38.8627 15.6418 39.8987 16.3582 39.5141 18.1534L39.5158 18.1551Z" fill="#D1D1E2"/>
</svg>
