<svg width="79" height="79" viewBox="0 0 79 79" fill="none" xmlns="http://www.w3.org/2000/svg">
<path d="M39.5 79C37.3275 79 35.4684 78.2271 33.9226 76.6813C32.3768 75.1356 31.6026 73.2751 31.6 71.1V39.5C31.6 37.3275 32.3742 35.4684 33.9226 33.9226C35.471 32.3768 37.3301 31.6026 39.5 31.6H71.1C73.2725 31.6 75.1329 32.3742 76.6813 33.9226C78.2297 35.471 79.0026 37.3301 79 39.5V71.1C79 73.2725 78.2271 75.1329 76.6813 76.6813C75.1356 78.2297 73.2751 79.0026 71.1 79H39.5ZM15.8 59.25V23.7C15.8 21.5275 16.5742 19.6684 18.1226 18.1226C19.671 16.5768 21.5301 15.8026 23.7 15.8H59.25C60.3692 15.8 61.3079 16.1792 62.0663 16.9376C62.8247 17.696 63.2026 18.6335 63.2 19.75C63.1974 20.8665 62.8182 21.8053 62.0624 22.5663C61.3066 23.3274 60.3692 23.7053 59.25 23.7H23.7V59.25C23.7 60.3692 23.3208 61.3079 22.5624 62.0663C21.804 62.8247 20.8665 63.2026 19.75 63.2C18.6335 63.1974 17.696 62.8182 16.9376 62.0624C16.1792 61.3066 15.8 60.3692 15.8 59.25ZM0 43.45V7.9C0 5.7275 0.7742 3.86837 2.3226 2.3226C3.871 0.776833 5.73013 0.00263333 7.9 0H43.45C44.5692 0 45.5079 0.3792 46.2663 1.1376C47.0247 1.896 47.4026 2.83347 47.4 3.95C47.3974 5.06653 47.0182 6.00532 46.2624 6.76635C45.5066 7.52738 44.5692 7.90527 43.45 7.9H7.9V43.45C7.9 44.5692 7.5208 45.5079 6.7624 46.2663C6.004 47.0247 5.06653 47.4026 3.95 47.4C2.83347 47.3974 1.896 47.0182 1.1376 46.2624C0.3792 45.5066 0 44.5692 0 43.45Z" fill="#A3A3C6"/>
</svg>
