<svg width="70" height="70" viewBox="0 0 70 70" fill="none" xmlns="http://www.w3.org/2000/svg">
<path d="M35 41.8796L28.1204 35L35 28.1204L41.8796 35L35 41.8796ZM27.6904 21.6708L19.0909 13.0713L30.0983 2.06388C30.7862 1.37592 31.5602 0.859951 32.4202 0.51597C33.2801 0.17199 34.1401 0 35 0C35.86 0 36.7199 0.17199 37.5799 0.51597C38.4398 0.859951 39.2138 1.37592 39.9017 2.06388L50.9091 13.0713L42.3096 21.6708L35 14.3612L27.6904 21.6708ZM13.0713 50.9091L2.06388 39.9017C1.37592 39.2138 0.859951 38.4398 0.51597 37.5799C0.17199 36.7199 0 35.86 0 35C0 34.1401 0.17199 33.2801 0.51597 32.4202C0.859951 31.5602 1.37592 30.7862 2.06388 30.0983L13.0713 19.0909L21.6708 27.6904L14.3612 35L21.6708 42.3096L13.0713 50.9091ZM56.9287 50.9091L48.3292 42.3096L55.6388 35L48.3292 27.6904L56.9287 19.0909L67.9361 30.0983C68.6241 30.7862 69.14 31.5602 69.484 32.4202C69.828 33.2801 70 34.1401 70 35C70 35.86 69.828 36.7199 69.484 37.5799C69.14 38.4398 68.6241 39.2138 67.9361 39.9017L56.9287 50.9091ZM30.0983 67.9361L19.0909 56.9287L27.6904 48.3292L35 55.6388L42.3096 48.3292L50.9091 56.9287L39.9017 67.9361C39.2138 68.6241 38.4398 69.14 37.5799 69.484C36.7199 69.828 35.86 70 35 70C34.1401 70 33.2801 69.828 32.4202 69.484C31.5602 69.14 30.7862 68.6241 30.0983 67.9361Z" fill="#A3A3C6"/>
</svg>
