<svg width="76" height="75" viewBox="0 0 76 75" fill="none" xmlns="http://www.w3.org/2000/svg">
<path d="M34.912 65.625V58.9062C32.1148 58.2812 29.7007 57.0833 27.6698 55.3125C25.6389 53.5417 24.1474 51.0417 23.1953 47.8125L29.0536 45.4688C29.8453 47.9688 31.0201 49.8698 32.5781 51.1719C34.1361 52.474 36.1808 53.125 38.712 53.125C40.8759 53.125 42.7104 52.6437 44.2156 51.6813C45.7209 50.7188 46.4724 49.2208 46.4703 47.1875C46.4703 45.3646 45.8898 43.9198 44.7286 42.8531C43.5675 41.7865 40.8759 40.575 36.6536 39.2188C32.1148 37.8125 29.0009 36.1333 27.312 34.1812C25.6231 32.2292 24.7786 29.8458 24.7786 27.0312C24.7786 23.6458 25.887 21.0156 28.1036 19.1406C30.3203 17.2656 32.5898 16.1979 34.912 15.9375V9.375H41.2453V15.9375C43.8842 16.3542 46.0618 17.3052 47.7781 18.7906C49.4945 20.276 50.7474 22.0854 51.537 24.2188L45.6786 26.7188C45.0453 25.0521 44.1481 23.8021 42.987 22.9688C41.8259 22.1354 40.2425 21.7187 38.237 21.7187C35.9148 21.7187 34.1467 22.2271 32.9328 23.2438C31.7189 24.2604 31.112 25.5229 31.112 27.0312C31.112 28.75 31.9036 30.1042 33.487 31.0938C35.0703 32.0833 37.8148 33.125 41.7203 34.2188C45.362 35.2604 48.1201 36.9146 49.9948 39.1812C51.8695 41.4479 52.8058 44.0646 52.8036 47.0312C52.8036 50.7292 51.6953 53.5417 49.4786 55.4688C47.262 57.3958 44.5175 58.5938 41.2453 59.0625V65.625H34.912Z" fill="#A3A3C6"/>
</svg>
