<svg width="53" height="53" viewBox="0 0 53 53" fill="none" xmlns="http://www.w3.org/2000/svg">
<path d="M34.6433 0H18.3844C3.53327 0 0 3.53327 0 18.3567V34.6156C0 49.4666 3.50579 53 18.3567 53H34.6156C49.4667 53 53 49.4942 53 34.6431V18.3844C53 3.53327 49.4942 0 34.6433 0ZM42.7864 37.8176H38.9219C37.4589 37.8176 37.0172 36.6306 34.3949 34.0083C32.1036 31.8 31.1375 31.5239 30.5578 31.5239C29.7574 31.5239 29.5364 31.7447 29.5364 32.8489V36.327C29.5364 37.2656 29.2328 37.8176 26.7761 37.8176C24.3921 37.6575 22.0803 36.9333 20.031 35.7047C17.9818 34.476 16.2537 32.7782 14.9891 30.7509C11.9869 27.0142 9.89803 22.6285 8.8886 17.9426C8.8886 17.363 9.10937 16.8384 10.2136 16.8384H14.0781C15.0719 16.8384 15.4308 17.2801 15.8172 18.3016C17.6942 23.8223 20.8964 28.6255 22.1938 28.6255C22.6906 28.6255 22.9114 28.4047 22.9114 27.1625V21.4759C22.7458 18.8812 21.3656 18.6603 21.3656 17.7219C21.3838 17.4743 21.4978 17.2435 21.6833 17.0786C21.8688 16.9136 22.1114 16.8275 22.3594 16.8384H28.4324C29.2605 16.8384 29.5364 17.2525 29.5364 18.2463V25.9203C29.5364 26.7484 29.8953 27.0244 30.1438 27.0244C30.6406 27.0244 31.027 26.7484 31.938 25.8375C33.8955 23.4503 35.4949 20.7908 36.6859 17.9426C36.8075 17.5999 37.0379 17.3065 37.342 17.1071C37.6461 16.9077 38.0071 16.8133 38.3699 16.8384H42.2344C43.3938 16.8384 43.6422 17.4181 43.3937 18.2463C41.9876 21.3953 40.2478 24.3845 38.2042 27.1625C37.7902 27.7973 37.6245 28.1286 38.2042 28.8739C38.5906 29.4536 39.9433 30.5853 40.8542 31.6619C42.1792 32.9835 43.2794 34.5127 44.1114 36.1891C44.4426 37.2656 43.8906 37.8176 42.7864 37.8176Z" fill="#1E1E5A"/>
</svg>
