<svg width="69" height="69" viewBox="0 0 69 69" fill="none" xmlns="http://www.w3.org/2000/svg">
<path d="M36.5499 48.0499C37.1 47.4979 37.375 46.8146 37.375 46C37.375 45.1854 37.099 44.5031 36.547 43.953C35.995 43.4029 35.3127 43.1269 34.5 43.125C33.6873 43.1231 33.005 43.3991 32.453 43.953C31.901 44.5069 31.625 45.1893 31.625 46C31.625 46.8107 31.901 47.494 32.453 48.0499C33.005 48.6057 33.6873 48.8807 34.5 48.875C35.3127 48.8693 35.996 48.5961 36.5499 48.0499ZM36.5499 36.547C37.1 35.9969 37.375 35.3146 37.375 34.5V23C37.375 22.1854 37.099 21.5031 36.547 20.953C35.995 20.4029 35.3127 20.1269 34.5 20.125C33.6873 20.1231 33.005 20.3991 32.453 20.953C31.901 21.5069 31.625 22.1892 31.625 23V34.5C31.625 35.3146 31.901 35.9979 32.453 36.5499C33.005 37.1019 33.6873 37.3769 34.5 37.375C35.3127 37.3731 35.996 37.0971 36.5499 36.547ZM24.8687 57.5H17.25C15.6687 57.5 14.3156 56.9375 13.1905 55.8124C12.0654 54.6873 11.5019 53.3332 11.5 51.75V44.1313L5.96563 38.525C5.43854 37.95 5.03125 37.3156 4.74375 36.6217C4.45625 35.9279 4.3125 35.2207 4.3125 34.5C4.3125 33.7793 4.45625 33.073 4.74375 32.3811C5.03125 31.6892 5.43854 31.0538 5.96563 30.475L11.5 24.8687V17.25C11.5 15.6687 12.0635 14.3156 13.1905 13.1905C14.3175 12.0654 15.6707 11.5019 17.25 11.5H24.8687L30.475 5.96563C31.05 5.43854 31.6854 5.03125 32.3811 4.74375C33.0769 4.45625 33.7832 4.3125 34.5 4.3125C35.2168 4.3125 35.9241 4.45625 36.6217 4.74375C37.3194 5.03125 37.9538 5.43854 38.525 5.96563L44.1313 11.5H51.75C53.3312 11.5 54.6854 12.0635 55.8124 13.1905C56.9394 14.3175 57.5019 15.6707 57.5 17.25V24.8687L63.0344 30.475C63.5615 31.05 63.9688 31.6854 64.2563 32.3811C64.5438 33.0769 64.6875 33.7832 64.6875 34.5C64.6875 35.2168 64.5438 35.9241 64.2563 36.6217C63.9688 37.3194 63.5615 37.9538 63.0344 38.525L57.5 44.1313V51.75C57.5 53.3312 56.9375 54.6854 55.8124 55.8124C54.6873 56.9394 53.3332 57.5019 51.75 57.5H44.1313L38.525 63.0344C37.95 63.5615 37.3156 63.9688 36.6217 64.2563C35.9279 64.5438 35.2207 64.6875 34.5 64.6875C33.7793 64.6875 33.073 64.5438 32.3811 64.2563C31.6892 63.9688 31.0538 63.5615 30.475 63.0344L24.8687 57.5Z" fill="#1E1E5A"/>
</svg>
