<svg width="237" height="237" viewBox="0 0 237 237" fill="none" xmlns="http://www.w3.org/2000/svg">
<rect width="237.002" height="237.002" rx="32" fill="#1E1E5A"/>
<path d="M44.8182 69.5V63.4545H80.8409V69.5H66.3182V110H59.3182V69.5H44.8182ZM95.8239 63.4545V110H88.8011V63.4545H95.8239ZM126.074 83.7727V89.6818H105.438V83.7727H126.074ZM56.2273 174L43.3182 127.455H50.7045L59.7727 163.5H60.2045L69.6364 127.455H76.9545L86.3864 163.523H86.8182L95.8636 127.455H103.273L90.3409 174H83.2727L73.4773 139.136H73.1136L63.3182 174H56.2273ZM120.739 174.705C117.299 174.705 114.337 173.97 111.852 172.5C109.383 171.015 107.473 168.932 106.125 166.25C104.792 163.553 104.125 160.394 104.125 156.773C104.125 153.197 104.792 150.045 106.125 147.318C107.473 144.591 109.352 142.462 111.761 140.932C114.186 139.402 117.019 138.636 120.261 138.636C122.231 138.636 124.14 138.962 125.989 139.614C127.837 140.265 129.496 141.288 130.966 142.682C132.436 144.076 133.595 145.886 134.443 148.114C135.292 150.326 135.716 153.015 135.716 156.182V158.591H107.966V153.5H129.057C129.057 151.712 128.693 150.129 127.966 148.75C127.239 147.356 126.216 146.258 124.898 145.455C123.595 144.652 122.064 144.25 120.307 144.25C118.398 144.25 116.731 144.72 115.307 145.659C113.898 146.583 112.807 147.795 112.034 149.295C111.277 150.78 110.898 152.394 110.898 154.136V158.114C110.898 160.447 111.307 162.432 112.125 164.068C112.958 165.705 114.117 166.955 115.602 167.818C117.087 168.667 118.822 169.091 120.807 169.091C122.095 169.091 123.269 168.909 124.33 168.545C125.39 168.167 126.307 167.606 127.08 166.864C127.852 166.121 128.443 165.205 128.852 164.114L135.284 165.273C134.769 167.167 133.845 168.826 132.511 170.25C131.193 171.659 129.534 172.758 127.534 173.545C125.549 174.318 123.284 174.705 120.739 174.705ZM150.051 127.455V174H143.256V127.455H150.051ZM172.261 174.682C169.443 174.682 166.928 173.962 164.716 172.523C162.519 171.068 160.792 169 159.534 166.318C158.292 163.621 157.67 160.386 157.67 156.614C157.67 152.841 158.299 149.614 159.557 146.932C160.83 144.25 162.572 142.197 164.784 140.773C166.996 139.348 169.504 138.636 172.307 138.636C174.473 138.636 176.216 139 177.534 139.727C178.867 140.439 179.898 141.273 180.625 142.227C181.367 143.182 181.943 144.023 182.352 144.75H182.761V127.455H189.557V174H182.92V168.568H182.352C181.943 169.311 181.352 170.159 180.58 171.114C179.822 172.068 178.777 172.902 177.443 173.614C176.11 174.326 174.383 174.682 172.261 174.682ZM173.761 168.886C175.716 168.886 177.367 168.371 178.716 167.341C180.08 166.295 181.11 164.848 181.807 163C182.519 161.152 182.875 159 182.875 156.545C182.875 154.121 182.527 152 181.83 150.182C181.133 148.364 180.11 146.947 178.761 145.932C177.413 144.917 175.746 144.409 173.761 144.409C171.716 144.409 170.011 144.939 168.648 146C167.284 147.061 166.254 148.508 165.557 150.341C164.875 152.174 164.534 154.242 164.534 156.545C164.534 158.879 164.883 160.977 165.58 162.841C166.277 164.705 167.307 166.182 168.67 167.273C170.049 168.348 171.746 168.886 173.761 168.886Z" fill="white"/>
</svg>
